<svg id="vuesax_linear_bag-tick" data-name="vuesax/linear/bag-tick" xmlns="http://www.w3.org/2000/svg" width="24.736" height="24.736" viewBox="0 0 24.736 24.736">
  <g id="bag-tick" transform="translate(0 0)">
    <path id="Vector" d="M0,1.546,1.546,3.092,4.9,0" transform="translate(9.915 14.945)" fill="none" stroke="#fff" stroke-linecap="round" stroke-linejoin="round" stroke-width="1"/>
    <path id="Vector-2" data-name="Vector" d="M3.731,0,0,3.741" transform="translate(5.349 2.061)" fill="none" stroke="#fff" stroke-linecap="round" stroke-linejoin="round" stroke-width="1"/>
    <path id="Vector-3" data-name="Vector" d="M0,0,3.731,3.741" transform="translate(15.656 2.061)" fill="none" stroke="#fff" stroke-linecap="round" stroke-linejoin="round" stroke-width="1"/>
    <path id="Vector-4" data-name="Vector" d="M0,2.061C0,.155,1.02,0,2.288,0H18.326c1.268,0,2.288.155,2.288,2.061,0,2.216-1.02,2.061-2.288,2.061H2.288C1.02,4.123,0,4.277,0,2.061Z" transform="translate(2.061 6.03)" fill="none" stroke="#fff" stroke-width="1"/>
    <path id="Vector-5" data-name="Vector" d="M0,0,1.453,8.905c.33,2,1.123,3.463,4.071,3.463H11.74c3.205,0,3.68-1.4,4.051-3.339L17.522,0" transform="translate(3.607 10.307)" fill="none" stroke="#fff" stroke-linecap="round" stroke-width="1"/>
    <path id="Vector-6" data-name="Vector" d="M0,0H24.736V24.736H0Z" fill="none" opacity="0"/>
  </g>
</svg>
