<svg id="document-filter" xmlns="http://www.w3.org/2000/svg" width="22" height="22" viewBox="0 0 22 22">
  <g id="Group" transform="translate(2.01 2)">
    <path id="Vector" d="M1.34,0h8.9a1.357,1.357,0,0,1,1.35,1.35V2.83a2.557,2.557,0,0,1-.67,1.55L8.02,6.94a2.212,2.212,0,0,0-.67,1.55v2.9a1.524,1.524,0,0,1-.61,1.15l-.94.61A1.375,1.375,0,0,1,3.71,12V8.43a2.632,2.632,0,0,0-.54-1.42L.61,4.31A2.221,2.221,0,0,1,0,2.96V1.41A1.357,1.357,0,0,1,1.34,0Z" fill="none" stroke="#fff" stroke-linecap="round" stroke-linejoin="round" stroke-width="1.5"/>
  </g>
  <path id="Vector-2" data-name="Vector" d="M0,8.772v2.7c0,4.494,1.8,6.291,6.3,6.291h5.4c4.5,0,6.3-1.8,6.3-6.291V6.076c0-2.8-.7-4.566-2.331-5.483A7.93,7.93,0,0,0,13.455,0" transform="translate(2 2.24)" fill="none" stroke="#fff" stroke-linecap="round" stroke-linejoin="round" stroke-width="1.5"/>
  <path id="Vector-3" data-name="Vector" d="M0,0H5" transform="translate(11.632 11.917)" fill="none" stroke="#fff" stroke-linecap="round" stroke-linejoin="round" stroke-width="1.5"/>
  <path id="Vector-4" data-name="Vector" d="M0,0H7" transform="translate(9.706 15.583)" fill="none" stroke="#fff" stroke-linecap="round" stroke-linejoin="round" stroke-width="1.5"/>
  <path id="Vector-5" data-name="Vector" d="M0,0H22V22H0Z" transform="translate(22 22) rotate(180)" fill="none" opacity="0"/>
</svg>
