<svg xmlns="http://www.w3.org/2000/svg" width="25" height="25" viewBox="0 0 25 25">
  <g id="vuesax_bold_location" data-name="vuesax/bold/location" transform="translate(-428 -188)">
    <g id="Vector" transform="translate(431.25 189.823)" fill="none">
      <path d="M18.229,6.979A8.985,8.985,0,0,0,9.25,0H9.24A8.983,8.983,0,0,0,.26,6.969C-.958,12.344,2.333,16.9,5.312,19.76a5.648,5.648,0,0,0,7.865,0C16.156,16.9,19.448,12.354,18.229,6.979ZM9.25,12.2a3.281,3.281,0,1,1,3.281-3.281A3.281,3.281,0,0,1,9.25,12.2Z" stroke="none"/>
      <path d="M 9.239514350891113 2.000001907348633 C 7.687764167785645 2.000001907348633 6.153453826904297 2.470331192016602 4.919224739074707 3.3243408203125 C 3.518044471740723 4.293882369995117 2.606754302978516 5.669151306152344 2.210884094238281 7.410971641540527 C 1.765295028686523 9.376141548156738 2.035663604736328 11.404221534729 3.014493942260742 13.43887138366699 C 3.808844566345215 15.09003162384033 5.048374176025391 16.73183059692383 6.699224472045898 18.31918144226074 C 7.392734527587891 18.98653221130371 8.298604011535645 19.35406112670898 9.249934196472168 19.35406112670898 C 10.20107460021973 19.35406112670898 11.10081481933594 18.98887252807617 11.78341484069824 18.32577133178711 L 11.79077434539795 18.31865119934082 C 13.4423942565918 16.73056221008301 14.68206405639648 15.09023094177246 15.47536468505859 13.44324111938477 C 16.45376396179199 11.41192150115967 16.7240047454834 9.385881423950195 16.27878379821777 7.422371864318848 C 15.88208389282227 5.676871299743652 14.97131443023682 4.299291610717773 13.57177448272705 3.327911376953125 C 12.33800411224365 2.471601486206055 10.80315399169922 2.000001907348633 9.249934196472168 2.000001907348633 L 9.239514350891113 2.000001907348633 M 9.249934196472168 14.19786167144775 C 6.337843894958496 14.19786167144775 3.968694686889648 11.82871150970459 3.968694686889648 8.916621208190918 C 3.968694686889648 6.004541397094727 6.337843894958496 3.635391235351562 9.249934196472168 3.635391235351562 C 12.16201400756836 3.635391235351562 14.53116416931152 6.004541397094727 14.53116416931152 8.916621208190918 C 14.53116416931152 11.82871150970459 12.16201400756836 14.19786167144775 9.249934196472168 14.19786167144775 M 9.239514350891113 1.9073486328125e-06 C 9.249934196472168 1.9073486328125e-06 9.249934196472168 1.9073486328125e-06 9.249934196472168 1.9073486328125e-06 C 12.93741416931152 1.9073486328125e-06 17.13531494140625 2.166650772094727 18.22905349731445 6.979131698608398 C 19.44780349731445 12.35411167144775 16.1561450958252 16.895751953125 13.17699432373047 19.76032066345215 C 12.08325386047363 20.82282066345215 10.66659450531006 21.35406112670898 9.249934196472168 21.35406112670898 C 7.833273887634277 21.35406112670898 6.416614532470703 20.82282066345215 5.312454223632812 19.76032066345215 C 2.333303451538086 16.895751953125 -0.9583549499511719 12.3436918258667 0.2603950500488281 6.968711853027344 C 1.354133605957031 2.156242370605469 5.562454223632812 1.9073486328125e-06 9.239514350891113 1.9073486328125e-06 Z M 9.249934196472168 12.19786167144775 C 11.06242370605469 12.19786167144775 12.53116416931152 10.72911167144775 12.53116416931152 8.916621208190918 C 12.53116416931152 7.104131698608398 11.06242370605469 5.635391235351562 9.249934196472168 5.635391235351562 C 7.437444686889648 5.635391235351562 5.968694686889648 7.104131698608398 5.968694686889648 8.916621208190918 C 5.968694686889648 10.72911167144775 7.437444686889648 12.19786167144775 9.249934196472168 12.19786167144775 Z" stroke="none" fill="#94b49f"/>
    </g>
    <g id="Vector-2" data-name="Vector" transform="translate(428 188)" fill="none" opacity="0">
      <path d="M0,0H25V25H0Z" stroke="none"/>
      <path d="M 1.999998092651367 1.999998092651367 L 1.999998092651367 22.99987983703613 L 22.99987983703613 22.99987983703613 L 22.99987983703613 1.999998092651367 L 1.999998092651367 1.999998092651367 M -1.9073486328125e-06 -1.9073486328125e-06 L 24.99987983703613 -1.9073486328125e-06 L 24.99987983703613 24.99987983703613 L -1.9073486328125e-06 24.99987983703613 L -1.9073486328125e-06 -1.9073486328125e-06 Z" stroke="none" fill="#94b49f"/>
    </g>
    <g id="Vector-3" data-name="Vector" transform="translate(453 213) rotate(180)" fill="none" opacity="0">
      <path d="M0,0H25V25H0Z" stroke="none"/>
      <path d="M 1.999998092651367 1.999998092651367 L 1.999998092651367 22.99987983703613 L 22.99987983703613 22.99987983703613 L 22.99987983703613 1.999998092651367 L 1.999998092651367 1.999998092651367 M -1.9073486328125e-06 -1.9073486328125e-06 L 24.99987983703613 -1.9073486328125e-06 L 24.99987983703613 24.99987983703613 L -1.9073486328125e-06 24.99987983703613 L -1.9073486328125e-06 -1.9073486328125e-06 Z" stroke="none" fill="#94b49f"/>
    </g>
  </g>
</svg>
