<svg id="SVG" xmlns="http://www.w3.org/2000/svg" width="12.031" height="13.447" viewBox="0 0 12.031 13.447">
  <path id="Path_24356" data-name="Path 24356" d="M9.667,13.984a4.954,4.954,0,0,0-.411,1.535l4.543-.967a4.911,4.911,0,0,0,.411-1.534Z" transform="translate(-2.179 -2.072)" fill="#ecb390"/>
  <path id="Path_24357" data-name="Path 24357" d="M12.461,9.588a4.926,4.926,0,0,0,.411-1.535l-3.538.754V7.359l3.128-.666a4.911,4.911,0,0,0,.411-1.534l-3.539.751V.707A5.026,5.026,0,0,0,7.917,1.9V6.213l-1.416.3V0A4.991,4.991,0,0,0,5.086,1.188V6.815l-3.167.673a4.882,4.882,0,0,0-.411,1.534l3.578-.76v1.822L1.251,10.9A4.917,4.917,0,0,0,.84,12.434l4.014-.853a1.281,1.281,0,0,0,.791-.528L6.38,9.961A.7.7,0,0,0,6.5,9.566V7.961l1.416-.3v2.894Z" transform="translate(-0.84)" fill="#ecb390"/>
</svg>
