<svg xmlns="http://www.w3.org/2000/svg" width="21.333" height="21.333" viewBox="0 0 21.333 21.333">
  <g id="Group_22800" data-name="Group 22800" transform="translate(-32 -390)">
    <g id="vuesax_linear_hierarchy-2" data-name="vuesax/linear/hierarchy-2" transform="translate(-268 202)">
      <g id="hierarchy-2" transform="translate(300 188)">
        <path id="Vector" d="M0,6.222V0" transform="translate(4.444 7.111)" fill="none" stroke="#94b49f" stroke-linecap="round" stroke-linejoin="round" stroke-width="1.5"/>
        <path id="Vector-2" data-name="Vector" d="M5.778,2.889A2.889,2.889,0,1,1,2.889,0,2.889,2.889,0,0,1,5.778,2.889Z" transform="translate(1.778 13.778)" fill="none" stroke="#94b49f" stroke-linecap="round" stroke-linejoin="round" stroke-width="1.5"/>
        <path id="Vector-3" data-name="Vector" d="M5.333,2.667A2.667,2.667,0,1,1,2.667,0,2.667,2.667,0,0,1,5.333,2.667Z" transform="translate(1.778 1.778)" fill="none" stroke="#94b49f" stroke-linecap="round" stroke-linejoin="round" stroke-width="1.5"/>
        <path id="Vector-4" data-name="Vector" d="M5.333,2.667A2.667,2.667,0,1,1,2.667,0,2.667,2.667,0,0,1,5.333,2.667Z" transform="translate(14.222 1.778)" fill="none" stroke="#94b49f" stroke-linecap="round" stroke-linejoin="round" stroke-width="1.5"/>
        <path id="Vector-5" data-name="Vector" d="M0,6.258a3.607,3.607,0,0,1,3.5-2.7l3.049.009A5.323,5.323,0,0,0,11.591,0" transform="translate(4.56 7.076)" fill="none" stroke="#94b49f" stroke-linecap="round" stroke-linejoin="round" stroke-width="1.5"/>
        <path id="Vector-6" data-name="Vector" d="M0,0H21.333V21.333H0Z" fill="none" opacity="0"/>
      </g>
    </g>
  </g>
</svg>
