<svg id="vuesax_bold_bag-2" data-name="vuesax/bold/bag-2" xmlns="http://www.w3.org/2000/svg" width="23.333" height="23.333" viewBox="0 0 23.333 23.333">
  <g id="bag-2">
    <path id="Vector" d="M16.337,6.769a4.5,4.5,0,0,0-2.994-1.283V4.747A4.755,4.755,0,0,0,8.131.022a5,5,0,0,0-4.278,4.9v.564A4.5,4.5,0,0,0,.859,6.769a4.275,4.275,0,0,0-.807,3.422l.681,5.415c.2,1.9.972,3.84,5.153,3.84H11.31c4.18,0,4.949-1.944,5.153-3.831l.681-5.435A4.3,4.3,0,0,0,16.337,6.769Zm-8.069-5.4a3.388,3.388,0,0,1,3.724,3.374v.681H5.2V4.922A3.656,3.656,0,0,1,8.267,1.373Zm-3.15,9.469h-.01a.977.977,0,1,1,.01,0Zm6.805,0h-.01a.977.977,0,1,1,.01,0Z" transform="translate(3.069 1.942)" fill="#fff"/>
    <path id="Vector-2" data-name="Vector" d="M0,0H23.333V23.333H0Z" transform="translate(23.333 23.333) rotate(180)" fill="none" opacity="0"/>
  </g>
</svg>
